<svg width="25" height="29" viewBox="0 0 25 29" fill="none" xmlns="http://www.w3.org/2000/svg">
<circle cx="12.5" cy="12.5" r="12" fill="#1E1E1E" stroke="#424242"/>
<g filter="url(#filter0_d_10_6)">
<path d="M16.8216 6.56844C16.7094 6.75455 16.5932 6.89211 16.4729 6.98112C16.3607 7.06204 16.2124 7.1025 16.0281 7.1025C15.8517 7.1025 15.6593 7.04181 15.4509 6.92043C15.2505 6.79096 15.014 6.65341 14.7415 6.50775C14.4689 6.3621 14.1563 6.22859 13.8036 6.10722C13.4509 5.97775 13.0381 5.91301 12.5651 5.91301C11.7315 5.91301 11.1062 6.10317 10.6894 6.48348C10.2725 6.8557 10.0641 7.34525 10.0641 7.95212C10.0641 8.34053 10.1764 8.66419 10.4008 8.92313C10.6333 9.17397 10.9339 9.39245 11.3026 9.57856C11.6794 9.76467 12.1042 9.93055 12.5772 10.0762C13.0501 10.2218 13.5351 10.3837 14.0321 10.5617C14.5291 10.7316 15.014 10.9339 15.487 11.1686C15.9599 11.4032 16.3808 11.6986 16.7495 12.0546C17.1263 12.4107 17.4269 12.8476 17.6513 13.3655C17.8838 13.8753 18 14.4983 18 15.2347C18 16.0357 17.8597 16.7883 17.5792 17.4922C17.3066 18.1881 16.9098 18.7991 16.3888 19.325C15.8677 19.8429 15.2224 20.2515 14.4529 20.5509C13.6914 20.8503 12.8257 21 11.8557 21C11.3026 21 10.7495 20.9434 10.1964 20.8301C9.6513 20.7168 9.12224 20.559 8.60922 20.3567C8.10421 20.1544 7.62725 19.9117 7.17836 19.6285C6.72946 19.3452 6.33667 19.0297 6 18.6817L7.05812 16.9582C7.14629 16.8287 7.26253 16.7235 7.40681 16.6426C7.5511 16.5536 7.70341 16.5091 7.86373 16.5091C8.08016 16.5091 8.30862 16.59 8.5491 16.7519C8.78958 16.9137 9.06613 17.0917 9.37876 17.2859C9.69138 17.4801 10.0521 17.6581 10.4609 17.82C10.8778 17.9818 11.3747 18.0627 11.9519 18.0627C12.7936 18.0627 13.4429 17.8685 13.8998 17.4801C14.3647 17.0917 14.5972 16.5131 14.5972 15.7444C14.5972 15.2994 14.481 14.9393 14.2485 14.6642C14.024 14.3891 13.7275 14.1585 13.3587 13.9724C12.99 13.7862 12.5691 13.6285 12.0962 13.499C11.6232 13.3614 11.1383 13.2117 10.6413 13.0499C10.1443 12.8881 9.65932 12.6939 9.18637 12.4673C8.71343 12.2407 8.29259 11.9413 7.92385 11.5691C7.55511 11.1969 7.25451 10.7357 7.02204 10.1854C6.7976 9.6352 6.68537 8.95145 6.68537 8.13419C6.68537 7.47876 6.81363 6.84356 7.07014 6.22859C7.32665 5.61362 7.70341 5.06743 8.2004 4.59002C8.69739 4.11261 9.30661 3.72825 10.0281 3.43695C10.7575 3.14565 11.5912 3 12.5291 3C13.5792 3 14.5491 3.16588 15.4389 3.49764C16.3367 3.82131 17.0942 4.27444 17.7114 4.85705L16.8216 6.56844Z" fill="url(#paint0_linear_10_6)" shape-rendering="crispEdges"/>
</g>
<defs>
<filter id="filter0_d_10_6" x="2" y="3" width="20" height="26" filterUnits="userSpaceOnUse" color-interpolation-filters="sRGB">
<feFlood flood-opacity="0" result="BackgroundImageFix"/>
<feColorMatrix in="SourceAlpha" type="matrix" values="0 0 0 0 0 0 0 0 0 0 0 0 0 0 0 0 0 0 127 0" result="hardAlpha"/>
<feOffset dy="4"/>
<feGaussianBlur stdDeviation="2"/>
<feComposite in2="hardAlpha" operator="out"/>
<feColorMatrix type="matrix" values="0 0 0 0 0 0 0 0 0 0 0 0 0 0 0 0 0 0 0.25 0"/>
<feBlend mode="normal" in2="BackgroundImageFix" result="effect1_dropShadow_10_6"/>
<feBlend mode="normal" in="SourceGraphic" in2="effect1_dropShadow_10_6" result="shape"/>
</filter>
<linearGradient id="paint0_linear_10_6" x1="64.3056" y1="3" x2="70.2301" y2="33.3272" gradientUnits="userSpaceOnUse">
<stop stop-color="#7AC7FF"/>
<stop offset="1" stop-color="#007AEA" stop-opacity="0"/>
<stop offset="1" stop-color="#0066FF" stop-opacity="0"/>
</linearGradient>
</defs>
</svg>
